<?xml version="1.0" standalone="no"?>
<!DOCTYPE svg PUBLIC "-//W3C//DTD SVG 20010904//EN"
 "http://www.w3.org/TR/2001/REC-SVG-20010904/DTD/svg10.dtd">
<svg version="1.0" xmlns="http://www.w3.org/2000/svg"
 width="726.000000pt" height="726.000000pt" viewBox="0 0 726.000000 726.000000"
 preserveAspectRatio="xMidYMid meet">
<metadata>
Created by potrace 1.11, written by Peter Selinger 2001-2013
</metadata>
<g transform="translate(0.000000,726.000000) scale(0.100000,-0.100000)"
fill="#000000" stroke="none">
<path d="M3407 5384 c-1 -1 -31 -4 -67 -8 -36 -3 -75 -8 -86 -10 -12 -2 -38
-7 -58 -10 -283 -45 -552 -203 -694 -409 -120 -174 -164 -335 -158 -577 4
-165 24 -258 81 -379 136 -287 408 -476 784 -546 91 -17 179 -24 363 -30 342
-10 567 -113 654 -300 65 -140 62 -331 -7 -467 -55 -108 -197 -205 -362 -248
-185 -47 -468 -47 -650 -1 -274 71 -420 233 -426 475 -1 17 -8 18 -98 11 -54
-4 -109 -8 -123 -10 -43 -5 -234 -18 -252 -17 -20 1 -21 -3 -18 -63 4 -97 42
-250 86 -343 133 -285 417 -484 795 -557 132 -26 400 -38 527 -24 37 4 92 10
122 14 114 12 274 60 397 117 292 135 500 400 539 688 3 25 8 48 10 52 7 11 5
248 -2 307 -16 141 -91 327 -177 438 -128 166 -359 316 -572 369 -149 38 -268
53 -460 59 -227 7 -339 28 -470 90 -186 89 -276 266 -244 480 30 191 203 343
434 381 17 2 55 8 85 13 30 5 108 9 172 9 258 -1 452 -61 570 -175 41 -40 92
-129 104 -183 4 -19 9 -38 10 -42 1 -5 2 -20 3 -34 l1 -27 98 7 c53 4 111 9
127 11 17 2 66 7 110 10 108 9 149 12 157 14 7 1 3 46 -8 111 -3 19 -8 46 -10
60 -15 86 -80 228 -143 314 -172 233 -468 386 -816 422 -61 6 -323 13 -328 8z"/>
<path d="M630 4185 l-625 -625 623 -621 c342 -341 627 -619 632 -617 11 3 390
379 390 386 0 3 -192 195 -427 428 l-428 424 430 430 430 430 -195 195 c-107
107 -197 194 -200 195 -3 0 -286 -281 -630 -625z"/>
<path d="M5806 4620 c-108 -107 -195 -198 -194 -202 2 -4 193 -199 425 -432
l422 -425 -424 -423 c-234 -232 -425 -425 -425 -429 0 -8 376 -382 389 -387 4
-1 289 276 632 618 l624 620 -627 627 -627 627 -195 -194z"/>
</g>
</svg>
